<svg xmlns="http://www.w3.org/2000/svg" width="100%" height="100%" preserveAspectRatio="xMidYMid meet" viewBox="1.4901161193847656e-8 5.960464477539063e-8 40 29.376157760620117" overflow="visible"><defs id="SvgjsDefs1002"></defs><g id="SvgjsG1008" transform="scale(0.4625875162288015)" opacity="1"><g id="SvgjsG1009" class="w8oMiyIUn" transform="translate(-0.4522887564566885, -0.6005622341950233) scale(0.6470512631961856)" light-content="false" non-strokable="false" fill="#8c57ff"><path d="M47 1.732l37.301 21.536a6 6 0 0 1 3 5.196v43.072a6 6 0 0 1-3 5.196L47 98.268a6 6 0 0 1-6 0L3.699 76.732a6 6 0 0 1-3-5.196V28.464a6 6 0 0 1 3-5.196L41 1.732a6 6 0 0 1 6 0z"></path></g><g id="SvgjsG1010" class="5rFkNWhH1K" transform="translate(11.083754273679558, 14.817620095030323) scale(0.3386841872784157)" light-content="true" non-strokable="false" fill="#fff"><path d="M24.777 38.979h-6.758A2.021 2.021 0 0 0 15.998 41v41.355c0 1.116.905 2.021 2.021 2.021h40.753a2.021 2.021 0 0 0 2.021-2.021V41a2.021 2.021 0 0 0-2.021-2.021H43.326V28.354H62.77a8.648 8.648 0 0 1 8.648 8.648v49.351a8.648 8.648 0 0 1-8.648 8.648H14.021a8.648 8.648 0 0 1-8.648-8.648V37.002a8.648 8.648 0 0 1 8.648-8.648h10.756v10.625z"></path><path d="M75.223 61.021h6.758A2.021 2.021 0 0 0 84.002 59V17.646a2.021 2.021 0 0 0-2.021-2.021H41.228a2.021 2.021 0 0 0-2.021 2.021V59c0 1.116.905 2.021 2.021 2.021h15.446v10.625H37.23a8.648 8.648 0 0 1-8.648-8.648v-49.35A8.648 8.648 0 0 1 37.23 5h48.749a8.648 8.648 0 0 1 8.648 8.648v49.351a8.648 8.648 0 0 1-8.648 8.648H75.223V61.021zM24.777 28.354v10.625h-6.758"></path></g></g></svg>
