<svg width="369.655" height="89.386" style="width: 369.655px; height: 89.3859px; position: absolute; top: 50%; left: 45%; transform: translate(-50%, -53%) scale(0.61368); z-index: 0; cursor: pointer; overflow: visible;"><g fill="#aa96da" transform="matrix(.11 0 0 .1 10 15)"><path xmlns="http://www.w3.org/2000/svg" d="M260.83 51.24q36.85.06 40.66.1c18.26.22 32.59 16.31 28.61 34.68-1.68 7.77-7.78 15.6-14.71 18.85q-1.88.88-3.7 1.86a.92.91 75.6 0 0-.47.8v94.39a1.37 1.37 0 0 0 .5 1.06q10.58 8.66 33.66 28.22 12.26 10.39 21.81 19.91c27.86 27.79 43.75 65.38 42.23 104.58-1.53 39.25-20.02 74.81-49.68 100.32-27.96 24.06-62.71 37.01-99.53 36.95-36.81-.05-71.53-13.09-99.42-37.22-29.59-25.6-47.98-61.21-49.41-100.47-1.41-39.2 14.59-76.75 42.53-104.46q9.57-9.49 21.86-19.85 23.14-19.49 33.74-28.12a1.37 1.37 0 0 0 .5-1.06l.27-94.39a.92.91-75.4 0 0-.47-.8q-1.82-.99-3.7-1.87c-6.92-3.27-13-11.12-14.65-18.89-3.93-18.38 10.44-34.43 28.7-34.6q3.81-.04 40.67.01m53.23 28.097a11.07 11.07 0 0 0-11.09-11.05l-84.22.146a11.07 11.07 0 0 0-11.05 11.09v.52a11.07 11.07 0 0 0 11.09 11.05l84.22-.147a11.07 11.07 0 0 0 11.05-11.089zM260.3 476.2c35.02.04 67.88-12.84 93.38-36.99 45.45-43.05 52.03-108.87 15.88-159.91q-7.34-10.36-23.56-25.18-19.98-18.26-38.9-33.95-4.6-3.82-9.81-6.97-2.81-1.7-2.8-4.7.05-19.38.12-100.2a.37.36 89.7 0 0-.36-.37q-16.71-.01-33.46-.04-16.75-.02-33.45-.05a.37.36-89.5 0 0-.36.37q-.15 80.82-.15 100.2 0 3-2.81 4.69-5.22 3.14-9.83 6.95-18.96 15.63-38.99 33.84-16.26 14.78-23.63 25.12c-36.29 50.94-29.88 116.78 15.45 159.95 25.44 24.22 58.26 37.19 93.28 37.24"></path><rect xmlns="http://www.w3.org/2000/svg" width="8.38" height="108.32" x="235.7" y="118.27" rx="4.15"></rect><rect xmlns="http://www.w3.org/2000/svg" width="77.3" height="7.8" x="-38.65" y="-3.9" rx="3.86" transform="rotate(42.1 -168.487 540.422)"></rect><path xmlns="http://www.w3.org/2000/svg" d="M254.54 320.38a.43.42-4.8 0 0 .36-.42v-31.28a.95.94 12.1 0 0-.56-.86c-7.86-3.53-12.4-11.13-10.77-19.79 2.48-13.15 18.88-18.9 29.38-9.65 5.84 5.15 7.82 13.99 4.14 20.83q-2.79 5.18-6.86 7.26-2.48 1.26-2.84 1.46a.97.96-15.3 0 0-.48.83v30.93a.81.8 6.9 0 0 .62.78q8.41 1.96 14.95 8.09a.83.82 49.8 0 0 1 .09l26.84-17.41a.75.75 0 0 0 .34-.68c-1.06-12.79 8.59-22.39 21.21-20.13 11.5 2.06 18.53 15.27 12.35 25.8-5.59 9.54-17.03 11.62-26.47 5.73a.75.74-45.4 0 0-.8.01l-26.63 17.27a.67.67 0 0 0-.27.77q3.74 11.7-.7 22.68a.76.75-62.2 0 0 .28.91l26.57 17.27a.78.76 43.6 0 0 .84-.01c9.59-6.54 23.13-4.43 27.94 7.09 3.97 9.53-.71 19.93-10.27 23.44-12.68 4.66-25.29-5.38-24.19-18.79a1.03 1.02 19.3 0 0-.47-.96l-27.91-18.14a.67.65 40.8 0 0-.79.05q-5.9 4.89-14.1 6.78a.47.46-7.2 0 0-.35.45v30.7a.92.91-79.1 0 0 .57.85c6.64 2.68 11.26 8.8 11.39 16.04.2 10.47-8.5 18.84-19.35 18.05-13.08-.96-20.76-16.23-13.56-27.16q2.95-4.47 8.39-6.92a.92.91 78.2 0 0 .54-.84v-30.47a.78.77-84 0 0-.61-.76q-7.83-1.73-13.98-6.65a.78.77 47.2 0 0-.9-.04l-27.87 18.07a.95.95 0 0 0-.43.85q.53 11.27-7.76 16.91c-11.42 7.76-27.81.42-28.15-13.97-.36-15.28 16.71-23.38 28.62-14.71a1.1 1.1 0 0 0 1.24.03l26.74-17.35a.68.67-27.1 0 0 .27-.81q-4.43-11.33-.59-22.67a.46.46 0 0 0-.19-.53l-26.8-17.42a.67.67 0 0 0-.72 0q-7.9 5.14-16.2 2.48c-5.25-1.68-10.04-6.27-11.57-11.71-3.27-11.64 4.91-22.41 17.05-22.6 11.14-.19 19.18 9.23 17.9 20.32a1.39 1.39 0 0 0 .63 1.33l26.1 16.96a.68.67-49.6 0 0 .83-.07q6.89-6.57 16.05-8.31m23.83 29.82a17.57 17.57 0 0 0-17.57-17.57 17.57 17.57 0 0 0-17.57 17.57 17.57 17.57 0 0 0 17.57 17.57 17.57 17.57 0 0 0 17.57-17.57"></path><circle xmlns="http://www.w3.org/2000/svg" cx="286.07" cy="301.6" r="7.83"></circle><circle xmlns="http://www.w3.org/2000/svg" cx="203.48" cy="348.03" r="10.59"></circle><ellipse xmlns="http://www.w3.org/2000/svg" rx="8.82" ry="8.7" transform="rotate(81.1 -48.58 361.538)"></ellipse><circle xmlns="http://www.w3.org/2000/svg" cx="170.81" cy="360.43" r="7.98"></circle><circle xmlns="http://www.w3.org/2000/svg" cx="302.09" cy="427.01" r="7.84"></circle><circle xmlns="http://www.w3.org/2000/svg" cx="226.01" cy="443.8" r="10.63"></circle></g><path fill="#aa96da" d="M98.267 42.595c3.213.918 6.517 3.81 6.517 8.4 0 5.874-3.671 9.454-11.703 9.454H80V28.321h12.209c6.746 0 10.143 3.81 10.143 8.124 0 3.534-2.295 5.324-4.085 6.15m-6.747-7.848h-4.13v5.737h4.13c2.616 0 3.488-1.193 3.488-2.892 0-1.835-1.101-2.845-3.488-2.845m1.148 19.277c3.258 0 4.727-1.377 4.727-3.994 0-2.203-1.469-3.625-5.095-3.625h-4.91v7.619zm27.905-17.854c5.416 0 12.576 4.084 12.576 12.438 0 8.399-7.16 12.3-12.576 12.3s-12.576-3.901-12.576-12.3c0-8.354 7.16-12.438 12.576-12.438m0 6.38c-2.754 0-5.554 2.11-5.554 6.058 0 3.81 2.8 5.92 5.554 5.92s5.6-2.11 5.6-5.92c0-3.947-2.846-6.059-5.6-6.059m28.135 11.84c1.285 0 2.203-.183 3.212-.458v6.012c-1.01.46-2.662.78-5.094.78-3.993 0-7.344-1.33-7.344-8.674v-9.5h-3.35v-5.967h3.35v-5.6h7.252v5.6h5.095v5.966h-5.095v9.501c0 1.056.275 2.34 1.974 2.34m24.233-17.807h7.252v23.866h-7.252v-2.387c-.321.827-2.478 2.846-6.15 2.846-5.462 0-11.75-3.901-11.75-12.438 0-8.216 6.288-12.3 11.75-12.3 3.672 0 5.829 2.11 6.15 2.616zm-5.094 17.945c2.983 0 5.415-2.065 5.415-6.058 0-3.855-2.432-5.92-5.415-5.92-3.121 0-5.783 2.11-5.783 5.92 0 3.947 2.662 6.058 5.783 6.058m31.668-18.312c4.452 0 8.996 2.983 8.996 10.556v13.677h-7.251V47.277c0-3.626-1.24-4.774-3.535-4.774-3.258 0-5.14 3.167-5.599 4.544V60.45h-7.252V36.583h7.252v4.13c.459-1.147 2.892-4.497 7.39-4.497M220.17 28v6.104h-7.252V28zm0 8.583v23.866h-7.252V36.583zm16.431-.413c4.36 0 8.032 1.836 10.281 5.69l-5.508 2.617c-1.193-1.01-2.157-1.928-4.681-1.928-2.754 0-5.554 2.112-5.554 6.013 0 3.855 2.8 5.875 5.554 5.875 2.524 0 3.488-.827 4.681-1.836l5.6 2.616c-2.34 3.855-5.92 5.6-10.373 5.6-5.324 0-12.484-3.81-12.484-12.255 0-8.308 7.16-12.392 12.484-12.392m25.932-7.849c7.206 0 11.979 4.36 11.979 11.061 0 6.61-4.773 10.557-11.98 10.557h-4.038v10.51h-7.39V28.321zm-.46 15.33c2.984 0 5.05-1.056 5.05-4.269 0-3.166-2.066-4.268-5.05-4.268h-3.58v8.537zm33.551-7.068h7.252v23.866h-7.252v-2.387c-.32.827-2.478 2.846-6.15 2.846-5.461 0-11.75-3.901-11.75-12.438 0-8.216 6.289-12.3 11.75-12.3 3.672 0 5.83 2.11 6.15 2.616zm-5.094 17.945c2.983 0 5.416-2.065 5.416-6.058 0-3.855-2.433-5.92-5.416-5.92-3.121 0-5.783 2.11-5.783 5.92 0 3.947 2.662 6.058 5.783 6.058m31.669-18.312c4.452 0 8.996 2.983 8.996 10.556v13.677h-7.252V47.277c0-3.626-1.24-4.774-3.534-4.774-3.259 0-5.14 3.167-5.6 4.544V60.45h-7.251V36.583h7.251v4.13c.46-1.147 2.892-4.497 7.39-4.497M342.85 28v6.104H335.6V28zm0 8.583v23.866H335.6V36.583zm16.431-.413c4.36 0 8.032 1.836 10.281 5.69l-5.507 2.617c-1.194-1.01-2.157-1.928-4.682-1.928-2.754 0-5.553 2.112-5.553 6.013 0 3.855 2.8 5.875 5.553 5.875 2.525 0 3.488-.827 4.682-1.836l5.6 2.616c-2.342 3.855-5.922 5.6-10.374 5.6-5.324 0-12.484-3.81-12.484-12.255 0-8.308 7.16-12.392 12.484-12.392"></path></svg>
